<?xml version="1.0" encoding="iso-8859-1"?>
<!-- Generator: Adobe Illustrator 19.2.1, SVG Export Plug-In . SVG Version: 6.00 Build 0)  -->
<svg version="1.1" xmlns="http://www.w3.org/2000/svg" xmlns:xlink="http://www.w3.org/1999/xlink" x="0px" y="0px"
	 viewBox="0 0 40 40" style="enable-background:new 0 0 40 40;" xml:space="preserve">
<g id="Layer_1">
	<rect x="19" y="2.482" style="fill:#66798F;" width="1" height="9.5"/>
	<g>
		<path style="fill:#C8D1DB;" d="M15,24.786c-1.378,0-2.5-1.122-2.5-2.5V12c0-1.378,1.122-2.5,2.5-2.5h9c1.378,0,2.5,1.122,2.5,2.5
			v10.286c0,1.378-1.122,2.5-2.5,2.5H15z"/>
		<path style="fill:#66798F;" d="M24,10c1.103,0,2,0.897,2,2v10.286c0,1.103-0.897,2-2,2h-9c-1.103,0-2-0.897-2-2V12
			c0-1.103,0.897-2,2-2H24 M24,9h-9c-1.657,0-3,1.343-3,3v10.286c0,1.657,1.343,3,3,3h9c1.657,0,3-1.343,3-3V12
			C27,10.343,25.657,9,24,9L24,9z"/>
	</g>
	<g>
		
			<rect x="4.262" y="11.548" transform="matrix(0.7071 -0.7071 0.7071 0.7071 -9.4728 8.7271)" style="fill:#C8D1DB;" width="3.072" height="8.5"/>
		<path style="fill:#66798F;" d="M3.879,12.414l5.303,5.303l-1.465,1.465l-5.303-5.303L3.879,12.414 M3.879,11L1,13.879l6.718,6.718
			l2.879-2.879L3.879,11L3.879,11z"/>
	</g>
	<g>
		<path style="fill:#C8D1DB;" d="M5.5,25.357v-6.079L9.278,15.5H21c1.378,0,2.5,1.122,2.5,2.5v7.357H5.5z"/>
		<path style="fill:#66798F;" d="M21,16c1.103,0,2,0.897,2,2v6.857H6v-5.372L9.486,16H21 M21,15H9.071L5,19.071v6.786h19V18
			C24,16.343,22.657,15,21,15L21,15z"/>
	</g>
	<g>
		
			<rect x="27.952" y="16.263" transform="matrix(0.7071 -0.7071 0.7071 0.7071 -3.1536 27.9832)" style="fill:#C8D1DB;" width="8.5" height="3.071"/>
		<path style="fill:#66798F;" d="M34.121,14.414l1.465,1.465l-5.303,5.303l-1.465-1.465L34.121,14.414 M34.121,13l-6.718,6.718
			l2.879,2.879L37,15.879L34.121,13L34.121,13z"/>
	</g>
	<g>
		<path style="fill:#C8D1DB;" d="M20.5,24.643V20c0-1.378,1.065-2.5,2.374-2.5h6.013l3.613,3.772v3.371H20.5z"/>
		<path style="fill:#66798F;" d="M28.673,18L32,21.473v2.67H21V20c0-1.103,0.841-2,1.874-2H28.673 M29.1,17h-6.226
			C21.287,17,20,18.343,20,20v5.143h13v-4.071L29.1,17L29.1,17z"/>
	</g>
	<g>
		<path style="fill:#C8D1DB;" d="M6.914,35.911c-0.151-2.438-1.396-3.888-2.602-5.292C3,29.091,1.646,27.514,1.511,24.5h36.981
			c-0.1,3.092-1.125,4.675-2.118,6.208c-0.896,1.383-1.82,2.81-1.934,5.203H6.914z"/>
		<path style="fill:#66798F;" d="M37.967,25c-0.181,2.609-1.074,3.986-2.012,5.436c-0.873,1.347-1.772,2.735-1.98,4.975H7.371
			c-0.276-2.318-1.496-3.739-2.68-5.119C3.462,28.861,2.293,27.5,2.047,25H37.967 M39,24H1c0,6.7,5.429,7.003,5.429,12.411h28.5
			C34.929,31.003,39,30.767,39,24L39,24z"/>
	</g>
	<rect x="30" y="28" style="fill:#66798F;" width="4" height="1"/>
	<rect x="16" y="6" style="fill:#66798F;" width="7" height="1"/>
	<circle style="fill:#66798F;" cx="10.5" cy="20.5" r="1.5"/>
	<circle style="fill:#66798F;" cx="16.5" cy="20.5" r="1.5"/>
	<circle style="fill:#66798F;" cx="25.5" cy="21.5" r="1.5"/>
	<g>
		<path style="fill:#C8D1DB;" d="M18.5,4.5v-2c0-0.551,0.449-1,1-1s1,0.449,1,1v2H18.5z"/>
		<path style="fill:#66798F;" d="M19.5,2C19.776,2,20,2.224,20,2.5V4h-1V2.5C19,2.224,19.224,2,19.5,2 M19.5,1
			C18.672,1,18,1.672,18,2.5V5h3V2.5C21,1.672,20.328,1,19.5,1L19.5,1z"/>
	</g>
	<g>
		<path style="fill:#F78F8F;" d="M6.914,35.911c-0.12-1.979-0.947-3.264-1.869-4.411h30.83c-0.725,1.179-1.346,2.418-1.436,4.411
			H6.914z"/>
		<g>
			<path style="fill:#C74343;" d="M35.008,32c-0.495,0.922-0.904,1.98-1.035,3.411H7.372C7.205,33.985,6.686,32.922,6.048,32H35.008
				 M36.78,31H3.98c1.249,1.492,2.448,2.821,2.448,5.411h28.5C34.929,33.807,35.836,32.495,36.78,31L36.78,31z"/>
		</g>
	</g>
	<path style="fill:#8BB7F0;" d="M1,39h38v-5.123C37.692,33.614,36.148,33,35,33c-1.458,0-3.562,1-5,1s-3.542-1-5-1s-3.562,1-5,1
		s-3.542-1-5-1s-3.562,1-5,1s-3.542-1-5-1c-1.148,0-2.692,0.614-4,0.877V39z"/>
	<g>
		<path style="fill:#4E7AB5;" d="M35,33c-1.458,0-3.562,1-5,1s-3.542-1-5-1s-3.562,1-5,1s-3.542-1-5-1s-3.562,1-5,1s-3.542-1-5-1
			c-1.148,0-2.692,0.614-4,0.877V34.9c0.574-0.103,1.17-0.271,1.754-0.435C3.566,34.237,4.406,34,5,34s1.434,0.237,2.246,0.465
			C8.18,34.728,9.146,35,10,35s1.82-0.272,2.754-0.535C13.566,34.237,14.406,34,15,34s1.434,0.237,2.246,0.465
			C18.18,34.728,19.146,35,20,35s1.82-0.272,2.754-0.535C23.566,34.237,24.406,34,25,34s1.434,0.237,2.246,0.465
			C28.18,34.728,29.146,35,30,35s1.82-0.272,2.754-0.535C33.566,34.237,34.406,34,35,34s1.434,0.237,2.246,0.465
			C37.83,34.63,38.426,34.797,39,34.9v-1.023C37.692,33.614,36.148,33,35,33z"/>
	</g>
</g>
<g id="Layer_2">
</g>
</svg>
